<svg width="40" height="40" viewBox="0 0 40 40" fill="none" xmlns="http://www.w3.org/2000/svg">
<rect x="0.416667" y="0.416667" width="39.1667" height="39.1667" rx="4.58333" stroke="#D3D3D3" stroke-width="0.833333"/>
<g clip-path="url(#clip0_4_983)">
<path d="M10.5859 18.4949H10V23.636C10.7707 23.6843 11.4898 23.9257 12.1094 24.3125V18.4949H10.5859Z" fill="#343A3F"/>
<path d="M26.3016 12.1223H13.6984C11.6591 12.1223 10 13.7814 10 15.8208V17.3231H10.5859H13.2812H17.627V16.2359H22.373V17.3231H26.7188H29.4141H30V15.8208C30 13.7814 28.3409 12.1223 26.3016 12.1223Z" fill="#343A3F"/>
<path d="M22.373 18.4949V19.1444C22.373 19.3571 22.3444 19.5632 22.2916 19.7596H26.7187V18.4949H22.373Z" fill="#343A3F"/>
<path d="M29.4141 18.4949H27.8906V24.3125C28.5102 23.9257 29.2293 23.6843 30 23.636V18.4949H29.4141Z" fill="#343A3F"/>
<path d="M21.5586 20.9315C21.1414 21.2959 20.5962 21.5175 20 21.5175C19.4038 21.5175 18.8586 21.2959 18.4414 20.9315H13.2812V25.3637C13.833 26.0652 14.1825 26.9328 14.2416 27.8778H25.7584C25.8175 26.9327 26.167 26.0652 26.7188 25.3637V20.9315H21.5586Z" fill="#343A3F"/>
<path d="M26.934 27.8778H30V24.8118C28.3725 24.9497 27.0719 26.2502 26.934 27.8778Z" fill="#343A3F"/>
<path d="M10 24.8118V27.8778H13.066C12.9281 26.2502 11.6275 24.9497 10 24.8118Z" fill="#343A3F"/>
<path d="M17.627 19.1444V18.4949H13.2812V19.7596H17.7084C17.6556 19.5632 17.627 19.3571 17.627 19.1444Z" fill="#343A3F"/>
<path d="M18.7989 17.4077V19.1445C18.7989 19.8067 19.3377 20.3456 20 20.3456C20.6623 20.3456 21.2011 19.8068 21.2011 19.1445V17.4077H18.7989Z" fill="#343A3F"/>
</g>
<defs>
<clipPath id="clip0_4_983">
<rect width="20" height="20" fill="white" transform="translate(10 10)"/>
</clipPath>
</defs>
</svg>
