<svg width="40" height="40" viewBox="0 0 40 40" fill="none" xmlns="http://www.w3.org/2000/svg">
<rect x="0.416667" y="0.416667" width="39.1667" height="39.1667" rx="2.91667" stroke="#D3D3D3" stroke-width="0.833333"/>
<path d="M24.1996 12.3334C23.3398 12.3467 22.4987 12.5868 21.7613 13.0292C21.0239 13.4716 20.4164 14.1008 19.9999 14.8532C19.5835 14.1008 18.9759 13.4716 18.2385 13.0292C17.5011 12.5868 16.66 12.3467 15.8002 12.3334C14.4295 12.3929 13.1381 12.9925 12.2081 14.0012C11.2782 15.0099 10.7852 16.3456 10.8369 17.7166C10.8369 21.1887 14.4914 24.9806 17.5565 27.5516C18.2408 28.1267 19.106 28.442 19.9999 28.442C20.8938 28.442 21.7591 28.1267 22.4434 27.5516C25.5084 24.9806 29.1629 21.1887 29.1629 17.7166C29.2147 16.3456 28.7217 15.0099 27.7917 14.0012C26.8617 12.9925 25.5703 12.3929 24.1996 12.3334Z" fill="#343A3F"/>
</svg>
