<svg width="8" height="14" viewBox="0 0 8 14" fill="none" xmlns="http://www.w3.org/2000/svg">
<path d="M6.3365 0.346565H1.66386C1.44524 0.345933 1.22866 0.388527 1.02656 0.471897C0.824463 0.555267 0.640841 0.677768 0.486254 0.832354C0.331668 0.986941 0.209167 1.17056 0.125797 1.37266C0.0424269 1.57476 -0.00016688 1.79135 0.000464685 2.00996V11.9904C0.000464685 12.9128 0.756555 13.6538 1.66386 13.6538H6.3365C6.55512 13.6544 6.7717 13.6118 6.9738 13.5284C7.1759 13.4451 7.35952 13.3226 7.51411 13.168C7.6687 13.0134 7.7912 12.8298 7.87457 12.6277C7.95794 12.4256 8.00053 12.209 7.9999 11.9904V2.00996C8.00053 1.79135 7.95794 1.57476 7.87457 1.37266C7.7912 1.17056 7.6687 0.986941 7.51411 0.832354C7.35952 0.677768 7.1759 0.555267 6.9738 0.471897C6.7717 0.388527 6.55512 0.345933 6.3365 0.346565ZM4.00774 12.5801C3.58433 12.5801 3.25165 12.2474 3.25165 11.824C3.25165 11.4006 3.58433 11.0679 4.00774 11.0679C4.43115 11.0679 4.76383 11.4006 4.76383 11.824C4.76383 12.2474 4.43115 12.5801 4.00774 12.5801ZM7.24381 10.2665H0.756555V2.56947H7.24381V10.2665Z" fill="#343A3F"/>
</svg>
