<svg width="24" height="24" viewBox="0 0 24 24" fill="none" xmlns="http://www.w3.org/2000/svg">
<path d="M20.9305 7.9568C20.8198 7.69847 20.5656 7.53103 20.2845 7.53103H15.3972L18.6541 1.01757C18.763 0.799697 18.7514 0.540756 18.6233 0.333473C18.4952 0.126142 18.2688 0 18.0251 0L8.23429 0.000562507C7.94681 0.000562507 7.68829 0.175596 7.58151 0.442552L3.0627 11.7387C2.97603 11.9553 3.00247 12.2008 3.1333 12.394C3.26408 12.5872 3.48219 12.7029 3.71554 12.7029H9.45526L5.32215 23.0357C5.1969 23.3488 5.31151 23.7067 5.59548 23.8887C5.71206 23.9636 5.84383 24 5.97471 24C6.16221 24 6.34798 23.9251 6.48476 23.7811L20.7943 8.71838C20.9878 8.51462 21.0415 8.21508 20.9305 7.9568Z" fill="#4888FF" fill-opacity="0.5"/>
<path d="M20.9305 7.9568C20.8198 7.69847 20.5656 7.53103 20.2845 7.53103H15.3972L18.6541 1.01757C18.763 0.799697 18.7514 0.540756 18.6233 0.333473C18.4952 0.126142 18.2688 0 18.0251 0L12 0.000328129V17.9756L20.7942 8.71852C20.9878 8.51462 21.0415 8.21508 20.9305 7.9568Z" fill="#4888FF" fill-opacity="0.5"/>
</svg>
