<svg width="24" height="24" viewBox="0 0 24 24" fill="none" xmlns="http://www.w3.org/2000/svg">
<g clip-path="url(#clip0_4_2890)">
<path d="M19.5624 5.37781C21.3279 7.6073 21.0972 10.7624 21.0972 12.8496H23.6744C23.6744 10.6727 23.7164 10.1208 23.5098 9.19849C23.0521 7.14203 21.6475 5.65411 19.5624 5.37781Z" fill="#4888FF" fill-opacity="0.5"/>
<path d="M3.23785 12.8497C3.23785 10.6385 3.208 9.99982 3.36785 8.93396C3.5548 7.68481 3.9851 6.36572 4.77282 5.37842C2.89654 5.60272 1.32531 6.95294 0.82525 9.198C0.618707 10.1212 0.660821 10.6718 0.660821 12.8497H3.23785Z" fill="#4888FF" fill-opacity="0.5"/>
<path d="M4.79479 9.14794C4.6527 10.0962 4.6809 10.6421 4.6809 12.8496H6.62401V12.1002C6.62401 10.4403 7.97478 9.08971 9.63463 9.08971H14.7004C16.3603 9.08971 17.711 10.4403 17.711 12.1002V12.8496H19.6542C19.6542 10.6523 19.6824 10.0973 19.5403 9.14794C19.2865 7.45074 18.399 5.34228 16.7393 5.34228C6.8767 5.34228 7.48479 5.32507 7.2224 5.38219C6.0335 5.63946 5.10369 7.08196 4.79479 9.14794Z" fill="#4888FF" fill-opacity="0.5"/>
<path d="M17.5393 15.7563H21.7255C22.1241 15.7563 22.4469 16.0797 22.4469 16.4779V21.6942C22.4469 22.0927 22.1239 22.4156 21.7255 22.4156H2.51056C2.11212 22.4156 1.78912 22.0927 1.78912 21.6942V16.4779C1.78912 16.0797 2.11194 15.7563 2.51056 15.7563H6.79578C6.60059 15.192 6.62402 14.8032 6.62402 14.2927H0.660828V23.1992C0.660828 23.5978 0.983826 23.9208 1.38226 23.9208H22.9528C23.3513 23.9208 23.6744 23.5978 23.6744 23.1992V14.2927H17.7111C17.7111 14.7986 17.7352 15.1898 17.5393 15.7563Z" fill="#4888FF" fill-opacity="0.5"/>
<path d="M3.23218 17.1992V20.9727H3.23785H21.0038V17.1992C19.1296 17.1992 20.2628 17.1992 16.5075 17.1992C16.1252 17.4984 15.672 17.7114 15.1776 17.8077C15.1776 19.2919 14.2614 20.0428 13.2177 20.0428H11.029C10.0459 20.0428 9.06848 19.3628 9.06848 17.7888C8.6087 17.6855 8.18738 17.4807 7.82849 17.1992C7.20099 17.1992 3.57587 17.1992 3.23218 17.1992Z" fill="#4888FF" fill-opacity="0.5"/>
<path d="M14.7004 10.5326H9.63464C8.77075 10.5326 8.06708 11.2359 8.06708 12.1002V14.7323C8.06708 15.6178 8.76489 16.4224 9.78992 16.4224C10.1856 16.4224 10.5115 16.7435 10.5115 17.144V18.0828C10.5115 18.368 10.7433 18.5999 11.029 18.5999H13.2177C13.5027 18.5999 13.7346 18.368 13.7346 18.0828C13.7346 17.5338 13.7346 17.6895 13.7346 17.144C13.7346 16.8439 13.9184 16.5864 14.1791 16.4778C14.4976 16.3455 15.2867 16.5881 15.9218 15.7562C16.3141 15.243 16.268 14.7841 16.268 14.2927C16.268 13.5608 16.268 12.8304 16.268 12.1002C16.268 11.2359 15.5643 10.5326 14.7004 10.5326ZM10.9512 13.3191C10.9512 13.719 10.6265 14.0405 10.2296 14.0405C9.8324 14.0405 9.50812 13.7186 9.50812 13.3191C9.50812 13.0051 9.50812 12.7974 9.50812 12.4744C9.50812 12.0762 9.8313 11.753 10.2296 11.753C10.6278 11.753 10.9512 12.0762 10.9512 12.4744V13.3191ZM12.889 15.561C12.889 15.9587 12.566 16.2825 12.1675 16.2825C11.7693 16.2825 11.4461 15.9591 11.4461 15.561C11.4461 14.7032 11.4045 14.5417 11.6082 14.2927C11.74 14.1301 11.942 14.0261 12.1675 14.0261C12.5654 14.0261 12.889 14.3494 12.889 14.7477V15.561ZM14.6927 13.571C14.5908 13.8453 14.3267 14.0405 14.0165 14.0405C13.6192 14.0405 13.2949 13.7186 13.2949 13.3191C13.2949 13.0051 13.2949 12.7974 13.2949 12.4744C13.2949 12.0762 13.6183 11.753 14.0165 11.753C14.4152 11.753 14.738 12.0762 14.738 12.4744C14.738 13.3929 14.7512 13.4152 14.6927 13.571Z" fill="#4888FF" fill-opacity="0.5"/>
<path d="M23.2786 2.36469H22.8411V1.92725C22.8411 1.52881 22.5181 1.20581 22.1197 1.20581C21.7213 1.20581 21.3981 1.52881 21.3981 1.92725V2.36469H20.9608C20.5624 2.36469 20.2394 2.68768 20.2394 3.08612C20.2394 3.48456 20.5624 3.80756 20.9608 3.80756H21.3981V4.245C21.3981 4.64343 21.7213 4.96643 22.1197 4.96643C22.5181 4.96643 22.8411 4.64343 22.8411 4.245V3.80756H23.2786C23.677 3.80756 24 3.48456 24 3.08612C24 2.68768 23.677 2.36469 23.2786 2.36469Z" fill="#4888FF" fill-opacity="0.5"/>
<path d="M16.6024 2.6488H17.0398V3.08606C17.0398 3.4845 17.3628 3.8075 17.7612 3.8075C18.1597 3.8075 18.4827 3.4845 18.4827 3.08606V2.6488H18.9201C19.3185 2.6488 19.6415 2.32562 19.6415 1.92719C19.6415 1.52875 19.3185 1.20575 18.9201 1.20575H18.4827V0.768311C18.4827 0.369873 18.1597 0.046875 17.7612 0.046875C17.3628 0.046875 17.0398 0.369873 17.0398 0.768311V1.20575H16.6024C16.2039 1.20575 15.8809 1.52875 15.8809 1.92719C15.8809 2.32562 16.2039 2.6488 16.6024 2.6488Z" fill="#4888FF" fill-opacity="0.5"/>
<path d="M5.0799 2.6488H5.51733V3.08606C5.51733 3.4845 5.84033 3.8075 6.23877 3.8075C6.63721 3.8075 6.96021 3.4845 6.96021 3.08606V2.6488H7.39764C7.79608 2.6488 8.11908 2.32562 8.11908 1.92719C8.11908 1.52875 7.79608 1.20575 7.39764 1.20575H6.96021V0.768311C6.96021 0.369873 6.63721 0.046875 6.23877 0.046875C5.84033 0.046875 5.51733 0.369873 5.51733 0.768311V1.20575H5.0799C4.68146 1.20575 4.35846 1.52875 4.35846 1.92719C4.35846 2.32562 4.68146 2.6488 5.0799 2.6488Z" fill="#4888FF" fill-opacity="0.5"/>
<path d="M1.15887 3.80756V4.245C1.15887 4.64343 1.48187 4.96643 1.88031 4.96643C2.27875 4.96643 2.60193 4.64343 2.60193 4.245V3.80756H3.03918C3.43762 3.80756 3.76062 3.48456 3.76062 3.08612C3.76062 2.68768 3.43762 2.36469 3.03918 2.36469H2.60193V1.92725C2.60193 1.52881 2.27875 1.20581 1.88031 1.20581C1.48187 1.20581 1.15887 1.52881 1.15887 1.92725V2.36469H0.721436C0.322998 2.36469 0 2.68768 0 3.08612C0 3.48456 0.322998 3.80756 0.721436 3.80756H1.15887Z" fill="#4888FF" fill-opacity="0.5"/>
</g>
<defs>
<clipPath id="clip0_4_2890">
<rect width="24" height="24" fill="white"/>
</clipPath>
</defs>
</svg>
