<svg width="24" height="24" viewBox="0 0 24 24" fill="none" xmlns="http://www.w3.org/2000/svg">
<g clip-path="url(#clip0_4_2909)">
<path d="M13.4366 20.5688C13.6304 20.5642 13.7957 20.4274 13.8365 20.2379C13.8503 20.1685 13.8695 20.1013 13.8871 20.0332C13.8975 19.9924 13.9056 19.9504 13.9177 19.9105C13.9261 19.881 13.9378 19.8532 13.9468 19.8248C14.1758 19.1074 14.6104 18.473 15.1965 18H12.6597C12.6031 18.2622 12.5638 18.5224 12.5334 18.7822C12.5273 18.834 12.5217 18.8859 12.5171 18.9377C12.4918 19.1949 12.4742 19.452 12.4742 19.7142C12.4742 19.8699 12.4845 20.0198 12.499 20.1672C12.5123 20.2916 12.5316 20.4153 12.5561 20.5389C12.5581 20.5496 12.5594 20.5607 12.5616 20.5714H13.4187C13.4264 20.5714 13.4312 20.5688 13.4366 20.5688Z" fill="#4888FF" fill-opacity="0.5"/>
<path d="M13.8083 2.44281C13.8212 2.34851 13.834 2.25861 13.8554 2.16852C13.864 2.11707 13.8812 2.0658 13.894 2.01434C13.9155 1.93286 13.9369 1.85138 13.9669 1.77008C13.9828 1.71899 14.0015 1.66901 14.0226 1.61993C14.0526 1.54285 14.0826 1.46576 14.1169 1.39288C14.1383 1.34564 14.1639 1.29437 14.1854 1.24713C14.224 1.17426 14.2668 1.10138 14.3055 1.0329C14.3355 0.985657 14.3611 0.94281 14.387 0.899963C14.434 0.827087 14.4897 0.754211 14.5411 0.68573C14.567 0.647095 14.5926 0.612854 14.6226 0.574219C14.6924 0.487427 14.7667 0.40448 14.8455 0.325745C14.8627 0.308533 14.8755 0.291504 14.8883 0.278503C14.9817 0.184387 15.0804 0.095581 15.184 0.0128174L15.1968 0H3.04688C1.38995 0 0.046875 1.34308 0.046875 3C0.046875 4.65692 1.38995 6 3.04688 6H15.1968C14.2896 5.26831 13.7618 4.16565 13.7611 3C13.7611 2.85809 13.7697 2.71655 13.7869 2.57574C13.7911 2.5329 13.7997 2.48566 13.8083 2.44281ZM3.04688 1.71423C2.46002 1.71405 1.94714 2.11047 1.79974 2.67865C1.7525 2.86725 1.58295 2.99982 1.38831 3C1.25555 3.00018 1.13031 2.93903 1.04901 2.83411C0.967712 2.72937 0.939331 2.59277 0.972656 2.46423C1.21674 1.51831 2.07001 0.8573 3.04688 0.857117C3.28363 0.857117 3.47552 1.04901 3.47552 1.28577C3.47552 1.52234 3.28363 1.71423 3.04688 1.71423ZM6.04688 1.71423H4.76111C4.52454 1.71423 4.33264 1.52234 4.33264 1.28577C4.33264 1.04901 4.52454 0.857117 4.76111 0.857117H6.04688C6.28363 0.857117 6.47552 1.04901 6.47552 1.28577C6.47552 1.52234 6.28363 1.71423 6.04688 1.71423Z" fill="#4888FF" fill-opacity="0.5"/>
<path d="M20.3732 22.0508C20.6843 21.3999 20.8566 20.3795 19.9111 19.2078C19.3678 18.4803 18.5255 18.0366 17.6182 18C17.5206 18 17.4272 18.0163 17.3317 18.0253C17.2502 18.0335 17.1671 18.0339 17.0872 18.0483C17.0273 18.0591 16.9717 18.0806 16.9133 18.0952C15.9864 18.3208 15.2214 18.9728 14.8519 19.8523C14.8442 19.8708 14.8326 19.8865 14.8253 19.905C14.7936 19.9869 14.7751 20.0764 14.7502 20.1621C14.7255 20.2478 14.6937 20.3284 14.6761 20.4166C14.5567 20.9881 14.0627 21.4043 13.4791 21.4248C13.4599 21.4248 13.442 21.4299 13.4225 21.4299H12.8381C13.2045 22.2087 13.7994 22.8574 14.5437 23.2894L14.5532 23.295C14.7372 23.4038 14.9282 23.5003 15.1249 23.5838C15.1514 23.595 15.1785 23.6039 15.2051 23.6142C15.3605 23.6777 15.5213 23.7318 15.685 23.7801C15.7407 23.7964 15.796 23.814 15.8522 23.8286C16.0356 23.876 16.2217 23.9136 16.4094 23.9409C16.4615 23.9485 16.5139 23.9537 16.5661 23.9601C16.773 23.9854 16.9812 23.9987 17.1898 24C18.5272 23.9802 19.7476 23.2332 20.3732 22.0508Z" fill="#4888FF" fill-opacity="0.5"/>
<path d="M4.76111 24H14.0482C12.8758 23.3216 12.0423 22.1816 11.7512 20.8586C11.7339 20.7814 11.7169 20.7043 11.7041 20.6272C11.6869 20.5329 11.6697 20.4342 11.6569 20.3357C11.6312 20.1295 11.6184 19.9221 11.6182 19.7142C11.6182 19.4828 11.6312 19.2557 11.6483 19.0243C11.6526 18.9472 11.6611 18.8657 11.6697 18.7886C11.6869 18.6429 11.7041 18.4929 11.7297 18.3472C11.7426 18.2529 11.7554 18.1544 11.7726 18.0557C11.8112 17.8629 11.8541 17.6656 11.9055 17.4642C11.9784 17.1815 12.0597 16.8986 12.1626 16.6157C11.9312 16.8386 11.7426 17.04 11.5968 17.2029C11.5926 17.2072 11.5926 17.2114 11.5884 17.2114C11.5283 17.28 11.4727 17.3443 11.4254 17.4C11.4223 17.4064 11.4179 17.4122 11.4126 17.4172C11.3698 17.4686 11.3311 17.5157 11.3011 17.5585L11.2797 17.58C11.254 17.6186 11.2284 17.6486 11.2112 17.6743C11.2026 17.6829 11.1984 17.6915 11.194 17.6957C11.1801 17.7149 11.1672 17.735 11.1555 17.7557L11.1425 17.7686C11.1383 17.7772 11.1341 17.7814 11.1341 17.7858C11.1341 17.79 11.1255 17.7944 11.1255 17.7944C11.1211 17.8024 11.1152 17.8098 11.1083 17.8158C11.1008 17.8279 11.0922 17.8394 11.0826 17.85C11.068 17.8667 11.0522 17.8824 11.0354 17.8971C11.0312 17.9015 11.0226 17.9057 11.0184 17.9099C11.0094 17.9185 10.9993 17.9258 10.9883 17.9315C10.9667 17.9454 10.9438 17.957 10.9197 17.9658C10.9155 17.9658 10.9155 17.97 10.9111 17.97C10.9069 17.97 10.9026 17.9744 10.8983 17.9744C10.894 17.9744 10.8854 17.9786 10.8768 17.9828C10.8448 17.9916 10.8116 17.996 10.7783 17.9958C10.7741 17.9958 10.7655 18 10.7611 18H10.7569C10.7483 18 10.7483 17.9958 10.7397 17.9958C10.6987 17.9969 10.6578 17.9897 10.6198 17.9744C10.6154 17.9744 10.6154 17.97 10.6111 17.97H10.6069C10.5582 17.9533 10.5143 17.9253 10.4784 17.8885C10.4661 17.8793 10.4559 17.8676 10.4484 17.8542C10.4222 17.8279 10.4004 17.7975 10.3841 17.7643C10.3751 17.7479 10.3678 17.7307 10.3627 17.7129L10.3497 17.6743C10.3412 17.6656 10.3412 17.6528 10.3369 17.64C10.3326 17.6272 10.3412 17.6228 10.3369 17.6186C10.3412 17.5759 10.3425 17.5329 10.3412 17.4901C10.5383 15.5951 11.1784 13.7732 12.2097 12.1714C13.9233 9.41125 16.5498 7.33832 19.6326 6.31293C20.2538 5.31757 20.5944 4.17297 20.6182 3C20.6182 1.34308 19.2751 0 17.6182 0C15.9615 0 14.6182 1.34308 14.6182 3C14.6182 4.65692 15.9615 6 17.6182 6C17.855 6 18.0469 6.19189 18.0469 6.42865C18.0454 6.57074 17.9751 6.70331 17.8583 6.78424C17.7876 6.83258 17.7039 6.85803 17.6182 6.85712H4.46539C4.04022 7.88068 3.52551 8.8645 2.92694 9.79706C2.67407 10.2215 2.4126 10.6544 2.15973 11.1086C0.920837 13.1876 0.204712 15.5363 0.0725098 17.9529C0.055481 18.2443 0.046875 18.5486 0.046875 18.8571C0.046875 21.5013 2.33972 24 4.76111 24ZM3.05969 11.4686C3.08569 11.3646 3.14996 11.2744 3.23969 11.2158L4.07117 10.6586C4.48883 10.3797 5.03339 10.3797 5.45123 10.6586L5.83264 10.9114C5.96118 11.0015 6.13257 11.0015 6.26111 10.9114L6.64252 10.6586C7.06036 10.3797 7.60492 10.3797 8.02258 10.6586L8.40399 10.9114C8.53271 11.0015 8.70392 11.0015 8.83264 10.9114L9.21405 10.6586C9.63171 10.3797 10.1763 10.3797 10.5939 10.6586L11.4254 11.2158C11.603 11.3311 11.6673 11.5605 11.5754 11.7513C11.5671 11.7709 11.5571 11.7894 11.5455 11.8072C11.4666 11.9269 11.3331 11.9993 11.1898 12C11.1055 12.0009 11.0229 11.9755 10.9541 11.9271L10.1182 11.3743C9.98969 11.2842 9.81848 11.2842 9.68976 11.3743L9.30835 11.6272C8.8905 11.9061 8.34613 11.9061 7.92828 11.6272L7.54688 11.3743C7.41815 11.2842 7.24695 11.2842 7.11823 11.3743L6.73682 11.6272C6.31915 11.9061 5.7746 11.9061 5.35693 11.6272L4.97552 11.3743C4.8468 11.2842 4.6756 11.2842 4.54688 11.3743L3.71118 11.9271C3.61707 11.9903 3.50153 12.0132 3.39038 11.9907C3.27924 11.9681 3.18182 11.902 3.11975 11.8072C3.0542 11.7072 3.03241 11.5849 3.05969 11.4686ZM1.9541 14.2158L2.7854 13.6586C3.20325 13.3797 3.74762 13.3797 4.16547 13.6586L4.54688 13.9114C4.6756 14.0015 4.8468 14.0015 4.97552 13.9114L5.35693 13.6586C5.7746 13.3797 6.31915 13.3797 6.73682 13.6586L7.11823 13.9114C7.24695 14.0015 7.41815 14.0015 7.54688 13.9114L7.92828 13.6586C8.34613 13.3797 8.8905 13.3797 9.30835 13.6586L10.1396 14.2158C10.2957 14.3205 10.3652 14.5148 10.3112 14.6948C10.257 14.8748 10.092 14.9985 9.90399 15C9.81976 15.0009 9.73737 14.9755 9.66833 14.9271L8.83264 14.3743C8.70392 14.2842 8.53271 14.2842 8.40399 14.3743L8.02258 14.6272C7.60492 14.9061 7.06036 14.9061 6.64252 14.6272L6.26111 14.3743C6.13257 14.2842 5.96118 14.2842 5.83264 14.3743L5.45123 14.6272C5.03339 14.9061 4.48883 14.9061 4.07117 14.6272L3.68976 14.3743C3.56104 14.2842 3.38983 14.2842 3.26111 14.3743L2.42542 14.9271C2.29871 15.0291 2.12531 15.0507 1.97754 14.9828C1.82977 14.9149 1.73328 14.7691 1.72815 14.6065C1.72321 14.4439 1.81073 14.2927 1.9541 14.2158ZM1.0968 17.6442L1.92828 17.0872C2.34613 16.8083 2.8905 16.8083 3.30835 17.0872L3.68976 17.3401C3.81848 17.43 3.98969 17.43 4.11823 17.3401L4.49982 17.0872C4.91748 16.8083 5.46204 16.8083 5.8797 17.0872L6.26111 17.3401C6.38983 17.43 6.56104 17.43 6.68976 17.3401L7.07117 17.0872C7.48883 16.8083 8.03339 16.8083 8.45123 17.0872L9.28253 17.6442C9.31256 17.6636 9.33984 17.6867 9.36401 17.7129C9.47736 17.8385 9.50629 18.019 9.43762 18.1736C9.36914 18.3283 9.21606 18.4281 9.04688 18.4286C8.96265 18.4296 8.88025 18.4041 8.81122 18.3558L7.97552 17.8028C7.8468 17.7129 7.6756 17.7129 7.54688 17.8028L7.16547 18.0557C6.74762 18.3345 6.20325 18.3345 5.7854 18.0557L5.40399 17.8028C5.27527 17.7129 5.10406 17.7129 4.97552 17.8028L4.59393 18.0557C4.17627 18.3345 3.63171 18.3345 3.21405 18.0557L2.83264 17.8028C2.70392 17.7129 2.53271 17.7129 2.40399 17.8028L1.5683 18.3558C1.47418 18.4191 1.35864 18.4422 1.2475 18.4195C1.13635 18.397 1.03876 18.3307 0.976868 18.2357C0.930359 18.1659 0.90509 18.0839 0.903992 18C0.904724 17.8566 0.977051 17.7231 1.0968 17.6442Z" fill="#4888FF" fill-opacity="0.5"/>
<path d="M11.4897 15.283C13.0369 12.9086 16.3969 9.09436 23.074 6.48438C15.874 7.08002 12.7326 12.2143 11.4897 15.283Z" fill="#4888FF" fill-opacity="0.5"/>
<path d="M23.9484 7.07568C16.504 9.82703 13.1697 14.0828 11.8669 16.2943C13.48 14.7972 15.2672 13.4994 17.1898 12.4286C19.71 11.0108 21.991 9.20428 23.9484 7.07568Z" fill="#4888FF" fill-opacity="0.5"/>
</g>
<defs>
<clipPath id="clip0_4_2909">
<rect width="24" height="24" fill="white"/>
</clipPath>
</defs>
</svg>
