<svg width="24" height="24" viewBox="0 0 24 24" fill="none" xmlns="http://www.w3.org/2000/svg">
<g clip-path="url(#clip0_4_2924)">
<path d="M20.3227 15.6746C18.6595 18.5475 15.5517 20.4844 12 20.4844C8.44828 20.4844 5.34047 18.5475 3.67734 15.6746C1.43766 17.4624 0 20.2149 0 23.2969C0 23.685 0.315 24 0.703125 24H23.2969C23.685 24 24 23.685 24 23.2969C24 20.2149 22.5623 17.4624 20.3227 15.6746Z" fill="#4888FF" fill-opacity="0.5"/>
<path d="M5.40234 1.54688H2.625C2.23687 1.54688 1.92188 1.86187 1.92188 2.25C1.92188 3.60797 2.445 4.84641 3.30047 5.77359C3.60938 4.16953 4.35234 2.71828 5.40234 1.54688Z" fill="#4888FF" fill-opacity="0.5"/>
<path d="M22.0781 2.25C22.0781 1.86187 21.7631 1.54688 21.375 1.54688H18.5977C19.6477 2.71828 20.3906 4.16953 20.6995 5.77359C21.555 4.84641 22.0781 3.60797 22.0781 2.25Z" fill="#4888FF" fill-opacity="0.5"/>
<path d="M4.54688 8.76562H5.85562C6.11766 7.89891 6.92391 7.26562 7.875 7.26562C8.82609 7.26562 9.63234 7.89891 9.89437 8.76562H14.1056C14.3677 7.89891 15.1739 7.26562 16.125 7.26562C17.0761 7.26562 17.8823 7.89891 18.1444 8.76562H19.4531V7.45312C19.4531 3.34359 16.1095 0 12 0C7.89047 0 4.54688 3.34359 4.54688 7.45312V8.76562ZM13.5 3.79688H15C15.3881 3.79688 15.7031 4.11188 15.7031 4.5C15.7031 4.88812 15.3881 5.20312 15 5.20312H13.5C13.1119 5.20312 12.7969 4.88812 12.7969 4.5C12.7969 4.11188 13.1119 3.79688 13.5 3.79688ZM9 3.79688H10.5C10.8881 3.79688 11.2031 4.11188 11.2031 4.5C11.2031 4.88812 10.8881 5.20312 10.5 5.20312H9C8.61188 5.20312 8.29688 4.88812 8.29688 4.5C8.29688 4.11188 8.61188 3.79688 9 3.79688Z" fill="#4888FF" fill-opacity="0.5"/>
<path d="M7.875 8.67188C7.48669 8.67188 7.17188 8.98669 7.17188 9.375V10.1719H4.5C4.11169 10.1719 3.79688 10.4867 3.79688 10.875C3.79688 15.3982 7.4768 19.0781 12 19.0781C16.5232 19.0781 20.2031 15.3982 20.2031 10.875C20.2031 10.4867 19.8883 10.1719 19.5 10.1719H16.8281V9.375C16.8281 8.98669 16.5133 8.67188 16.125 8.67188C15.7367 8.67188 15.4219 8.98669 15.4219 9.375V10.1719H8.57812V9.375C8.57812 8.98669 8.26331 8.67188 7.875 8.67188Z" fill="#4888FF" fill-opacity="0.5"/>
</g>
<defs>
<clipPath id="clip0_4_2924">
<rect width="24" height="24" fill="white"/>
</clipPath>
</defs>
</svg>
