<svg width="24" height="24" viewBox="0 0 24 24" fill="none" xmlns="http://www.w3.org/2000/svg">
<path d="M17.9693 0H6.03067C5.41835 0 4.9234 0.495781 4.9234 1.10727V22.8923C4.9234 23.5042 5.41879 24 6.03067 24H17.9692C18.5807 24 19.0766 23.5042 19.0766 22.8923V1.10727C19.0769 0.495386 18.5808 0 17.9693 0ZM10.7766 1.30677H13.2225C13.3504 1.30677 13.4534 1.4099 13.4534 1.5377C13.4534 1.6655 13.3504 1.76863 13.2225 1.76863H10.7766C10.6496 1.76863 10.5457 1.6655 10.5457 1.5377C10.5457 1.4099 10.6496 1.30677 10.7766 1.30677ZM13.4769 22.0302H10.5226C10.2804 22.0302 10.0838 21.834 10.0838 21.5918C10.0838 21.3496 10.2804 21.1534 10.5226 21.1534H13.4769C13.7191 21.1534 13.9148 21.3496 13.9148 21.5918C13.9149 21.8341 13.7196 22.0302 13.4769 22.0302ZM17.6926 19.446H6.30731V3.7535H17.6926V19.446Z" fill="#4888FF" fill-opacity="0.5"/>
</svg>
