<svg width="40" height="40" viewBox="0 0 40 40" fill="none" xmlns="http://www.w3.org/2000/svg">
<rect width="40" height="40" rx="3.33333" fill="#F4F4F4"/>
<g clip-path="url(#clip0_4_1098)">
<path d="M29.6082 11.6386C29.45 11.4938 29.256 11.3937 29.0462 11.3486C28.8365 11.3036 28.6185 11.3151 28.4147 11.3822L10.8292 17.1791C10.35 17.3371 10.025 17.7649 10.0013 18.2689C9.97758 18.773 10.261 19.2294 10.7232 19.4317L15.0723 21.3345L16.3844 27.4203C16.4389 27.6731 16.5672 27.8983 16.8391 27.9675C17.114 28.0376 17.3083 27.8873 17.5134 27.7337L20.7408 25.3171L24.5138 28.4046C24.7336 28.5845 25.0022 28.6783 25.276 28.6783C25.4087 28.6782 25.5405 28.6563 25.6661 28.6136C26.0632 28.4789 26.3576 28.1548 26.4536 27.7467L29.9679 12.8052C30.0169 12.5963 30.0094 12.3782 29.9462 12.1732C29.883 11.9681 29.7663 11.7837 29.6082 11.6386ZM17.7946 22.4249C17.7924 22.43 17.7903 22.4357 17.7883 22.4426L17.0608 24.9843L16.2489 21.2189L21.8316 18.1171L17.9285 22.1983C17.8673 22.2627 17.8215 22.3402 17.7946 22.4249ZM18.0255 25.8829L18.3559 24.7284L18.672 23.6241L19.8044 24.5508L18.0255 25.8829ZM28.8244 12.5362L25.3102 27.4777C25.3084 27.4851 25.3061 27.4953 25.2889 27.5012C25.2718 27.5069 25.2636 27.5003 25.2577 27.4955L21.1291 24.1171L21.1288 24.1168L19.216 22.5515L25.3614 16.1258C25.4585 16.0242 25.516 15.8912 25.5234 15.7509C25.5309 15.6105 25.4877 15.4722 25.4018 15.361C25.316 15.2497 25.1931 15.173 25.0554 15.1446C24.9178 15.1163 24.7745 15.1382 24.6517 15.2065L15.552 20.2623L11.1941 18.3555C11.1808 18.3498 11.1735 18.3465 11.1746 18.3241C11.1756 18.3017 11.1832 18.2991 11.197 18.2946L28.7824 12.4977C28.7909 12.495 28.8005 12.4917 28.8147 12.5046C28.8288 12.5176 28.8265 12.5275 28.8244 12.5362Z" fill="#343A3F"/>
</g>
<defs>
<clipPath id="clip0_4_1098">
<rect width="20" height="20" fill="white" transform="translate(9.99994 10)"/>
</clipPath>
</defs>
</svg>
