<svg width="14" height="14" viewBox="0 0 14 14" fill="none" xmlns="http://www.w3.org/2000/svg">
<path d="M7.00006 0C3.1405 0 0 3.1204 0 7.00006C0 10.869 3.13079 14.0001 7.00006 14.0001C10.8751 14.0001 14.0001 10.8627 14.0001 7.00006C14.0002 3.12357 10.8615 0 7.00006 0ZM6.19237 1.64532C5.4179 2.14769 4.87638 2.53335 4.75645 2.96156C4.54705 3.70942 5.87832 4.2534 6.24725 4.58096C6.91666 5.17525 6.60901 6.64699 5.909 7.30284C5.20899 7.95866 4.94879 8.62389 5.02568 9.12404C5.12609 9.77726 5.86621 10.8157 6.26316 11.4601C6.66012 12.1044 6.23721 12.2502 5.6838 11.9211C5.27238 11.6764 3.37877 11.2149 2.80334 10.7968C2.22791 10.3787 2.04766 8.94608 2.22945 8.35036C2.41123 7.75465 2.62503 6.16812 1.71748 5.6436C1.48107 5.50696 1.30623 5.34416 1.17894 5.16677C1.98524 2.61232 4.42263 0.789916 7.24717 0.902847C6.84958 1.19447 6.45832 1.47281 6.19237 1.64532ZM12.1754 8.13683C11.3962 8.05551 10.4916 7.93148 10.3206 7.83766C9.60715 7.44631 9.84198 6.91032 10.1375 6.13251C10.433 5.35474 8.94846 4.67406 8.94846 3.73933C8.94846 2.82577 9.53313 2.21974 10.2263 1.82226C11.9522 2.90151 13.1027 4.81879 13.1027 7.00006C13.1027 7.87146 12.9188 8.70056 12.5883 9.45116C12.557 8.79252 12.6208 8.18332 12.1754 8.13683Z" fill="#343A3F" fill-opacity="0.5"/>
</svg>
