<svg width="40" height="40" viewBox="0 0 40 40" fill="none" xmlns="http://www.w3.org/2000/svg">
<rect width="40" height="40" rx="3.33333" fill="#F4F4F4"/>
<g clip-path="url(#clip0_4_1093)">
<path fill-rule="evenodd" clip-rule="evenodd" d="M26.7747 12.7248C25.0205 10.9686 22.6877 10.001 20.2023 10C15.0811 10 10.9132 14.1678 10.9111 19.2904C10.9104 20.928 11.3382 22.5265 12.1513 23.9355L10.8332 28.75L15.7586 27.4579C17.1158 28.1983 18.6437 28.5884 20.1985 28.5889H20.2025C25.3231 28.5889 29.4915 24.4207 29.4934 19.2979C29.4945 16.8152 28.529 14.481 26.7747 12.7248ZM20.2023 27.0197H20.1991C18.8135 27.0191 17.4545 26.6468 16.2686 25.9433L15.9868 25.7759L13.064 26.5426L13.8441 23.6929L13.6604 23.4008C12.8874 22.1712 12.4791 20.7501 12.4799 19.291C12.4815 15.0332 15.9458 11.5692 20.2054 11.5692C22.2681 11.5699 24.2071 12.3742 25.665 13.8338C27.123 15.2935 27.9255 17.2338 27.9248 19.2973C27.923 23.5554 24.4589 27.0197 20.2023 27.0197ZM24.4382 21.236C24.2062 21.1197 23.0647 20.5583 22.8518 20.4807C22.6392 20.4032 22.4843 20.3646 22.3297 20.597C22.1748 20.8293 21.73 21.3523 21.5945 21.5071C21.459 21.6621 21.3237 21.6815 21.0915 21.5653C20.8593 21.4491 20.1113 21.2039 19.2245 20.413C18.5345 19.7974 18.0686 19.0371 17.9331 18.8048C17.7978 18.5723 17.9319 18.4588 18.0349 18.331C18.2862 18.019 18.5379 17.6918 18.6153 17.5369C18.6927 17.382 18.6539 17.2464 18.5958 17.1302C18.5379 17.014 18.0736 15.8714 17.8802 15.4064C17.6916 14.9539 17.5004 15.015 17.3578 15.0079C17.2225 15.0011 17.0677 14.9998 16.9128 14.9998C16.7581 14.9998 16.5066 15.0578 16.2937 15.2903C16.081 15.5228 15.4813 16.0843 15.4813 17.227C15.4813 18.3697 16.3132 19.4736 16.4292 19.6286C16.5452 19.7835 18.0663 22.1284 20.395 23.1339C20.9489 23.3733 21.3813 23.516 21.7186 23.623C22.2747 23.7997 22.7807 23.7748 23.1808 23.715C23.6268 23.6483 24.5542 23.1534 24.7478 22.6111C24.9412 22.0688 24.9412 21.604 24.8831 21.5071C24.8252 21.4103 24.6703 21.3523 24.4382 21.236Z" fill="#343A3F"/>
</g>
<defs>
<clipPath id="clip0_4_1093">
<rect width="20" height="20" fill="white" transform="translate(9.99994 10)"/>
</clipPath>
</defs>
</svg>
